<svg xmlns="http://www.w3.org/2000/svg" width="512" height="512" viewBox="0 0 512 512">
  <defs>
    <linearGradient id="g" x1="0" y1="0" x2="0" y2="1">
      <stop offset="0" stop-color="#F5D894"/>
      <stop offset="0.55" stop-color="#D8AC50"/>
      <stop offset="1" stop-color="#A2731D"/>
    </linearGradient>
  </defs>
  <rect width="512" height="512" rx="112" fill="#14161C"/>
  <g transform="translate(256,262) scale(15.5) translate(-12,-12)" fill="none" stroke="url(#g)" stroke-width="1.6" stroke-linejoin="round" stroke-linecap="round">
    <path d="M7 3h10v5a5 5 0 0 1-10 0V3Z"/>
    <path d="M7 4.5H4.5v1.8A3.2 3.2 0 0 0 7.7 9.5"/>
    <path d="M17 4.5h2.5v1.8a3.2 3.2 0 0 1-3.2 3.2"/>
    <path d="M12 13v4"/>
    <path d="M8.5 21h7l-.8-2.4a1.5 1.5 0 0 0-1.4-1h-2.6a1.5 1.5 0 0 0-1.4 1L8.5 21Z"/>
  </g>
</svg>
